<?xml version="1.0" encoding="utf-8"?><svg viewBox="0 0 86 86" xmlns="http://www.w3.org/2000/svg" xmlns:xlink="http://www.w3.org/1999/xlink"><style>:root>svg{display:none}:root>svg:target{display:block}</style><svg fill="none" viewBox="0 0 19 16" id="arrow-next" xmlns="http://www.w3.org/2000/svg"><path d="M18.707 8.707a1 1 0 0 0 0-1.414L12.343.929a1 1 0 1 0-1.414 1.414L16.586 8l-5.657 5.657a1 1 0 0 0 1.414 1.414l6.364-6.364ZM0 9h18V7H0v2Z" fill="#1946BA"/></svg><svg fill="none" viewBox="0 0 19 16" id="arrow-prev" xmlns="http://www.w3.org/2000/svg"><path d="M.293 8.707a1 1 0 0 1 0-1.414L6.657.929A1 1 0 0 1 8.07 2.343L2.414 8l5.657 5.657a1 1 0 1 1-1.414 1.414L.293 8.707ZM19 9H1V7h18v2Z" fill="#1946BA"/></svg><svg fill="none" viewBox="0 0 86 86" id="discount" xmlns="http://www.w3.org/2000/svg"><g clip-path="url(#ca)" fill="#1946BA"><path d="M81.566 33.938a4.061 4.061 0 0 1-.64-2.354l.31-5.776a7.763 7.763 0 0 0-4.259-7.37l-5.115-2.587c-.74-.37-1.34-.97-1.712-1.712l-2.586-5.115a7.763 7.763 0 0 0-7.371-4.258l-5.776.311a3.886 3.886 0 0 1-2.354-.642l-4.783-3.15a7.772 7.772 0 0 0-8.558 0l-4.784 3.15c-.7.45-1.522.674-2.354.642l-5.776-.311a7.763 7.763 0 0 0-7.37 4.258L15.85 14.14a3.83 3.83 0 0 1-1.712 1.711l-5.115 2.587a7.763 7.763 0 0 0-4.258 7.37l.311 5.776a3.853 3.853 0 0 1-.642 2.354l-3.15 4.784a7.772 7.772 0 0 0 0 8.558l3.15 4.783c.45.701.674 1.522.642 2.354l-.311 5.776a7.763 7.763 0 0 0 4.258 7.37l5.116 2.587c.74.371 1.34.972 1.711 1.712l2.587 5.115a7.763 7.763 0 0 0 7.37 4.259l5.776-.31a3.885 3.885 0 0 1 2.354.64l4.784 3.151a7.775 7.775 0 0 0 8.558 0l4.783-3.15c.701-.45 1.522-.674 2.354-.642l5.776.31a7.762 7.762 0 0 0 7.37-4.258l2.587-5.115c.371-.74.972-1.34 1.712-1.712l5.115-2.586a7.762 7.762 0 0 0 4.259-7.371l-.31-5.776a3.848 3.848 0 0 1 .64-2.354l3.151-4.783a7.775 7.775 0 0 0 0-8.558l-3.15-4.784ZM81.47 45.14l-3.15 4.784a7.757 7.757 0 0 0-1.264 4.706l.311 5.777a3.93 3.93 0 0 1-2.14 3.695l-5.114 2.586a7.754 7.754 0 0 0-3.443 3.443l-2.586 5.115a3.91 3.91 0 0 1-3.695 2.139l-5.776-.31a7.885 7.885 0 0 0-4.707 1.263L45.14 81.47a3.885 3.885 0 0 1-4.278 0l-4.785-3.15a7.839 7.839 0 0 0-4.298-1.284 3.199 3.199 0 0 0-.428.02l-5.776.311a3.93 3.93 0 0 1-3.695-2.14l-2.587-5.114a7.752 7.752 0 0 0-3.442-3.443l-5.115-2.586a3.911 3.911 0 0 1-2.14-3.695l.312-5.776a7.89 7.89 0 0 0-1.264-4.707L4.532 45.14a3.885 3.885 0 0 1 0-4.278l3.15-4.785a7.757 7.757 0 0 0 1.265-4.706l-.312-5.776a3.93 3.93 0 0 1 2.14-3.695l5.115-2.587a7.752 7.752 0 0 0 3.442-3.442l2.587-5.115a3.91 3.91 0 0 1 3.695-2.14l5.776.311a7.89 7.89 0 0 0 4.707-1.264l4.765-3.13a3.885 3.885 0 0 1 4.278 0l4.784 3.15a7.757 7.757 0 0 0 4.706 1.264l5.777-.312a3.932 3.932 0 0 1 3.695 2.14l2.586 5.115a7.75 7.75 0 0 0 3.443 3.442l5.115 2.587a3.91 3.91 0 0 1 2.139 3.695l-.31 5.776a7.89 7.89 0 0 0 1.263 4.707l3.15 4.784a3.89 3.89 0 0 1-.019 4.26Z"/><path d="M35.434 42.105a6.67 6.67 0 1 0-6.67-6.67 6.682 6.682 0 0 0 6.67 6.67Zm0-9.47a2.781 2.781 0 1 1 0 5.561 2.781 2.781 0 0 1 0-5.562ZM50.565 43.895a6.67 6.67 0 1 0 0 13.341 6.672 6.672 0 0 0 6.671-6.67 6.682 6.682 0 0 0-6.67-6.672Zm0 9.47a2.781 2.781 0 1 1 0-5.561 2.781 2.781 0 0 1 0 5.562ZM55.486 30.514a1.939 1.939 0 0 0-2.743 0L31.156 52.102a1.94 1.94 0 0 0 0 2.742c.364.368.863.571 1.381.564a1.99 1.99 0 0 0 1.38-.564l21.588-21.588a1.955 1.955 0 0 0-.02-2.742Z"/></g><defs><clipPath id="ca"><path fill="#fff" d="M0 0h86v86H0z"/></clipPath></defs></svg></svg>